<?xml version="1.0" encoding="UTF-8"?>
<svg width="480px" height="480px" viewBox="0 0 480 480" version="1.1" xmlns="http://www.w3.org/2000/svg" xmlns:xlink="http://www.w3.org/1999/xlink">
    <title>Birthday Icon</title>
    <g id="Page-1" stroke="none" stroke-width="1" fill="none" fill-rule="evenodd">
        <g id="Group-2">
            <path d="M98.761719,284 C99.199219,283.710938 99.695312,283.503906 100.160156,283.199219 C99.695312,283.519531 99.199219,283.726562 98.761719,284 Z" id="Path" fill="#FFCD00"></path>
            <path d="M231.054688,281.777344 C231.648438,281.535156 232.289062,281.390625 232.902344,281.191406 C232.289062,281.390625 231.648438,281.527344 231.054688,281.777344 Z" id="Path" fill="#FFCD00"></path>
            <path d="M235.808594,280.425781 C236.496094,280.304688 237.214844,280.273438 237.929688,280.207031 C237.214844,280.273438 236.503906,280.304688 235.808594,280.425781 Z" id="Path" fill="#FFCD00"></path>
            <path d="M373.808594,280.800781 C374.28125,280.921875 374.726562,281.089844 375.191406,281.230469 C374.734375,281.0625 374.28125,280.910156 373.808594,280.800781 Z" id="Path" fill="#FFCD00"></path>
            <path d="M354.761719,284 C355.199219,283.710938 355.695312,283.503906 356.160156,283.199219 C355.695312,283.519531 355.199219,283.726562 354.761719,284 Z" id="Path" fill="#FFCD00"></path>
            <path d="M103.054688,281.777344 C103.648438,281.535156 104.289062,281.390625 104.902344,281.191406 C104.289062,281.390625 103.648438,281.527344 103.054688,281.777344 Z" id="Path" fill="#FFCD00"></path>
            <path d="M369.761719,280.0625 C369.480469,280.0625 369.214844,280.0625 368.960938,280.0625 C369.761719,280.0625 370.480469,280.191406 371.230469,280.289062 C370.71875,280.257812 370.265625,280.097656 369.761719,280.0625 Z" id="Path" fill="#FFCD00"></path>
            <path d="M363.808594,280.425781 C364.496094,280.304688 365.214844,280.273438 365.929688,280.207031 C365.214844,280.273438 364.503906,280.304688 363.808594,280.425781 Z" id="Path" fill="#FFCD00"></path>
            <path d="M359.054688,281.777344 C359.648438,281.535156 360.289062,281.390625 360.902344,281.191406 C360.289062,281.390625 359.648438,281.527344 359.054688,281.777344 Z" id="Path" fill="#FFCD00"></path>
            <path d="M245.808594,280.800781 C246.28125,280.921875 246.726562,281.089844 247.191406,281.230469 C246.734375,281.0625 246.28125,280.910156 245.808594,280.800781 Z" id="Path" fill="#FFCD00"></path>
            <path d="M107.808594,280.425781 C108.496094,280.304688 109.214844,280.273438 109.929688,280.207031 C109.214844,280.273438 108.503906,280.304688 107.808594,280.425781 Z" id="Path" fill="#FFCD00"></path>
            <path d="M226.761719,284 C227.199219,283.710938 227.695312,283.503906 228.160156,283.199219 C227.695312,283.519531 227.199219,283.726562 226.761719,284 Z" id="Path" fill="#FFCD00"></path>
            <path d="M113.761719,280.0625 C113.480469,280.0625 113.214844,280.0625 112.960938,280.0625 C113.761719,280.0625 114.480469,280.191406 115.230469,280.289062 C114.71875,280.257812 114.265625,280.097656 113.761719,280.0625 Z" id="Path" fill="#FFCD00"></path>
            <path d="M117.808594,280.800781 C118.28125,280.921875 118.726562,281.089844 119.191406,281.230469 C118.734375,281.0625 118.28125,280.910156 117.808594,280.800781 Z" id="Path" fill="#FFCD00"></path>
            <path d="M241.761719,280.0625 C241.480469,280.0625 241.214844,280.0625 240.960938,280.0625 C241.761719,280.0625 242.480469,280.191406 243.230469,280.289062 C242.71875,280.257812 242.265625,280.097656 241.761719,280.0625 Z" id="Path" fill="#FFCD00"></path>
            <g id="Path-2" transform="translate(32.000000, 280.000000)" fill="#A100EA">
                <path d="M371.679688,84.320312 C364.199219,76.792969 360,66.613281 360,56 L360,25.351562 C360.097656,14.554688 353.359375,4.875 343.199219,1.214844 C342.734375,1.070312 342.289062,0.902344 341.816406,0.785156 C340.960938,0.585938 340.09375,0.429688 339.222656,0.320312 C338.472656,0.222656 337.71875,0.128906 336.953125,0.097656 C335.945312,0.070312 334.9375,0.105469 333.9375,0.207031 C333.222656,0.273438 332.503906,0.304688 331.816406,0.425781 C330.832031,0.632812 329.863281,0.898438 328.910156,1.222656 C328.296875,1.425781 327.65625,1.566406 327.0625,1.808594 C326.066406,2.234375 325.097656,2.726562 324.167969,3.289062 C323.703125,3.550781 323.207031,3.761719 322.769531,4.089844 C321.429688,4.96875 320.183594,5.984375 319.046875,7.113281 C314.554688,11.585938 312.019531,17.660156 312,24 L312,40 C312,62.089844 294.089844,80 272,80 C249.910156,80 232,62.089844 232,40 L232,25.351562 C232.097656,14.554688 225.359375,4.875 215.199219,1.214844 C214.734375,1.070312 214.289062,0.902344 213.816406,0.785156 C212.960938,0.585938 212.09375,0.429688 211.222656,0.320312 C210.472656,0.222656 209.71875,0.128906 208.953125,0.097656 C207.945312,0.070312 206.9375,0.105469 205.9375,0.207031 C205.222656,0.273438 204.503906,0.304688 203.816406,0.425781 C202.832031,0.632812 201.863281,0.898438 200.910156,1.222656 C200.296875,1.425781 199.65625,1.566406 199.0625,1.808594 C198.066406,2.234375 197.097656,2.726562 196.167969,3.289062 C195.703125,3.550781 195.207031,3.761719 194.769531,4.089844 C193.429688,4.96875 192.183594,5.984375 191.046875,7.113281 C186.554688,11.585938 184.019531,17.660156 184,24 L184,72 C184,94.089844 166.089844,112 144,112 C121.910156,112 104,94.089844 104,72 L104,25.351562 C104.097656,14.554688 97.359375,4.875 87.199219,1.214844 C86.734375,1.070312 86.289062,0.902344 85.816406,0.785156 C84.960938,0.585938 84.09375,0.429688 83.222656,0.320312 C82.472656,0.222656 81.71875,0.128906 80.953125,0.097656 C79.945312,0.070312 78.9375,0.105469 77.9375,0.207031 C77.222656,0.273438 76.503906,0.304688 75.816406,0.425781 C74.832031,0.632812 73.863281,0.898438 72.910156,1.222656 C72.296875,1.425781 71.65625,1.566406 71.0625,1.808594 C70.066406,2.234375 69.097656,2.726562 68.167969,3.289062 C67.703125,3.550781 67.207031,3.761719 66.769531,4.089844 C65.429688,4.96875 64.183594,5.984375 63.046875,7.113281 C58.554688,11.585938 56.019531,17.660156 56,24 L56,56 C56.03125,66.617188 51.828125,76.8125 44.320312,84.320312 C36.8125,91.828125 26.617188,96.03125 16,96 C10.5,95.996094 5.058594,94.878906 5.68434189e-14,92.71875 L5.68434189e-14,192 L416,192 L416,92.71875 C410.941406,94.878906 405.5,95.996094 400,96 C389.386719,96 379.207031,91.800781 371.679688,84.320312 Z" id="Path"></path>
            </g>
            <path d="M440,232 L40,232 C22.328125,232 8,246.328125 8,264 L8,336 C8,346.613281 12.199219,356.792969 19.679688,364.320312 C27.175781,371.847656 37.378906,376.054688 48,376 C58.617188,376.03125 68.8125,371.828125 76.320312,364.320312 C83.828125,356.8125 88.03125,346.617188 88,336 L88,304 C88,297.636719 90.53125,291.53125 95.039062,287.039062 C96.175781,285.910156 97.421875,284.898438 98.761719,284.015625 C99.199219,283.726562 99.695312,283.519531 100.160156,283.214844 C101.089844,282.65625 102.058594,282.160156 103.054688,281.734375 C103.648438,281.488281 104.289062,281.351562 104.902344,281.152344 C105.855469,280.828125 106.824219,280.558594 107.808594,280.351562 C108.503906,280.230469 109.214844,280.199219 109.929688,280.136719 C110.640625,280.070312 111.289062,280 112,280 C112.320312,280 112.625,280.078125 112.945312,280.097656 C113.265625,280.113281 113.480469,280.039062 113.742188,280.097656 C114.246094,280.097656 114.703125,280.289062 115.199219,280.351562 C116.070312,280.460938 116.9375,280.617188 117.792969,280.816406 C118.265625,280.945312 118.71875,281.097656 119.175781,281.246094 C129.160156,284.332031 135.976562,293.550781 136,304 L136,352 C136,374.089844 153.910156,392 176,392 C198.089844,392 216,374.089844 216,352 L216,304 C216,297.636719 218.53125,291.53125 223.039062,287.039062 C224.175781,285.910156 225.421875,284.898438 226.761719,284.015625 C227.199219,283.726562 227.695312,283.519531 228.160156,283.214844 C229.089844,282.65625 230.058594,282.160156 231.054688,281.734375 C231.648438,281.488281 232.289062,281.351562 232.902344,281.152344 C233.855469,280.828125 234.824219,280.558594 235.808594,280.351562 C236.503906,280.230469 237.214844,280.199219 237.929688,280.136719 C238.640625,280.070312 239.289062,280 240,280 C240.320312,280 240.625,280.078125 240.945312,280.097656 C241.265625,280.113281 241.480469,280.039062 241.742188,280.097656 C242.246094,280.097656 242.703125,280.289062 243.199219,280.351562 C244.070312,280.460938 244.9375,280.617188 245.792969,280.816406 C246.265625,280.945312 246.71875,281.097656 247.175781,281.246094 C257.160156,284.332031 263.976562,293.550781 264,304 L264,320 C264,342.089844 281.910156,360 304,360 C326.089844,360 344,342.089844 344,320 L344,304 C344,297.636719 346.53125,291.53125 351.039062,287.039062 C352.175781,285.910156 353.421875,284.898438 354.761719,284.015625 C355.199219,283.726562 355.695312,283.519531 356.160156,283.214844 C357.089844,282.65625 358.058594,282.160156 359.054688,281.734375 C359.648438,281.488281 360.289062,281.351562 360.902344,281.152344 C361.855469,280.828125 362.824219,280.558594 363.808594,280.351562 C364.503906,280.230469 365.214844,280.199219 365.929688,280.136719 C366.640625,280.070312 367.289062,280 368,280 C368.320312,280 368.625,280.078125 368.945312,280.097656 C369.265625,280.113281 369.480469,280.039062 369.742188,280.097656 C370.246094,280.097656 370.703125,280.289062 371.199219,280.351562 C372.070312,280.460938 372.9375,280.617188 373.792969,280.816406 C374.265625,280.945312 374.71875,281.097656 375.175781,281.246094 C385.160156,284.332031 391.976562,293.550781 392,304 L392,336 C391.96875,346.617188 396.171875,356.8125 403.679688,364.320312 C411.1875,371.828125 421.382812,376.03125 432,376 C437.5,375.996094 442.941406,374.878906 448,372.71875 C462.554688,366.300781 471.964844,351.910156 472,336 L472,264 C472,246.328125 457.671875,232 440,232 Z" id="Path" fill="#A4DCCE"></path>
            <path d="M472,480 L8,480 C3.582031,480 0,476.417969 0,472 C0,467.582031 3.582031,464 8,464 L472,464 C476.417969,464 480,467.582031 480,472 C480,476.417969 476.417969,480 472,480 Z" id="Path" fill="#BCBEC0"></path>
            <g id="Group" transform="translate(95.000000, 279.000000)" fill="#FFCD00">
                <path d="M256.039062,8.039062 C257.175781,6.910156 258.421875,5.898438 259.761719,5.015625 C258.421875,5.898438 257.175781,6.910156 256.039062,8.039062 Z" id="Path"></path>
                <path d="M41,26.351562 L41,25 C40.992188,14.546875 34.183594,5.3125 24.199219,2.214844 C34.359375,5.875 41.097656,15.554688 41,26.351562 Z" id="Path"></path>
                <path d="M148.199219,1.320312 C149.070312,1.429688 149.9375,1.585938 150.792969,1.785156 C149.9375,1.585938 149.070312,1.429688 148.199219,1.320312 Z" id="Path"></path>
                <path d="M169,26.351562 L169,25 C168.992188,14.546875 162.183594,5.3125 152.199219,2.214844 C162.359375,5.875 169.097656,15.554688 169,26.351562 Z" id="Path"></path>
                <path d="M297,26.351562 L297,25 C296.992188,14.546875 290.183594,5.3125 280.199219,2.214844 C290.359375,5.875 297.097656,15.554688 297,26.351562 Z" id="Path"></path>
                <path d="M137.902344,2.191406 C138.855469,1.867188 139.824219,1.601562 140.808594,1.390625 C139.824219,1.601562 138.855469,1.867188 137.902344,2.191406 Z" id="Path"></path>
                <path d="M17,1 C16.289062,1 15.625,1.152344 14.929688,1.207031 C15.929688,1.105469 16.9375,1.070312 17.945312,1.097656 C17.625,1.078125 17.320312,1 17,1 Z" id="Path"></path>
                <path d="M20.199219,1.320312 C21.070312,1.429688 21.9375,1.585938 22.792969,1.785156 C21.9375,1.585938 21.070312,1.429688 20.199219,1.320312 Z" id="Path"></path>
                <path d="M273,1 C272.289062,1 271.625,1.152344 270.929688,1.207031 C271.929688,1.105469 272.9375,1.070312 273.945312,1.097656 C273.625,1.078125 273.320312,1 273,1 Z" id="Path"></path>
                <path d="M5.160156,4.257812 C6.089844,3.695312 7.058594,3.203125 8.054688,2.777344 C7.058594,3.203125 6.089844,3.695312 5.160156,4.257812 Z" id="Path"></path>
                <path d="M261.160156,4.257812 C262.089844,3.695312 263.058594,3.203125 264.054688,2.777344 C263.058594,3.203125 262.089844,3.695312 261.160156,4.257812 Z" id="Path"></path>
                <path d="M265.902344,2.191406 C266.855469,1.867188 267.824219,1.601562 268.808594,1.390625 C267.824219,1.601562 266.855469,1.867188 265.902344,2.191406 Z" id="Path"></path>
                <path d="M0.039062,8.039062 C1.175781,6.910156 2.421875,5.898438 3.761719,5.015625 C2.421875,5.898438 1.175781,6.910156 0.039062,8.039062 Z" id="Path"></path>
                <path d="M9.902344,2.191406 C10.855469,1.867188 11.824219,1.601562 12.808594,1.390625 C11.824219,1.601562 10.855469,1.867188 9.902344,2.191406 Z" id="Path"></path>
                <path d="M145,1 C144.289062,1 143.625,1.152344 142.929688,1.207031 C143.929688,1.105469 144.9375,1.070312 145.945312,1.097656 C145.625,1.078125 145.320312,1 145,1 Z" id="Path"></path>
                <path d="M128.039062,8.039062 C129.175781,6.910156 130.421875,5.898438 131.761719,5.015625 C130.421875,5.898438 129.175781,6.910156 128.039062,8.039062 Z" id="Path"></path>
                <path d="M276.199219,1.320312 C277.070312,1.429688 277.9375,1.585938 278.792969,1.785156 C277.9375,1.585938 277.070312,1.429688 276.199219,1.320312 Z" id="Path"></path>
                <path d="M133.160156,4.257812 C134.089844,3.695312 135.058594,3.203125 136.054688,2.777344 C135.058594,3.203125 134.089844,3.695312 133.160156,4.257812 Z" id="Path"></path>
            </g>
            <polygon id="Path" fill="#FF9811" points="216 128 264 128 264 232 216 232"></polygon>
            <path d="M208,64 C208,81.671875 222.328125,96 240,96 C257.671875,96 272,81.671875 272,64 C272,46.328125 240,0 240,0 C240,0 208,46.328125 208,64 Z" id="Path" fill="#F8FF43"></path>
            <polygon id="Path" fill="#FF9811" points="352 144 400 144 400 232 352 232"></polygon>
            <path d="M344,80 C344,97.671875 358.328125,112 376,112 C393.671875,112 408,97.671875 408,80 C408,62.328125 376,16 376,16 C376,16 344,62.328125 344,80 Z" id="Path" fill="#F8FF43"></path>
            <polygon id="Path" fill="#FF9811" points="80 144 128 144 128 232 80 232"></polygon>
            <path d="M136,80 C135.988281,96.097656 124.042969,109.6875 108.078125,111.761719 L108,111.761719 C106.671875,111.921875 105.335938,112.003906 104,112 C86.328125,112 72,97.671875 72,80 C72,62.320312 104,16 104,16 C104,16 105.601562,18.320312 108,22 C116.640625,35.121094 136,66.238281 136,80 Z" id="Path" fill="#F8FF43"></path>
            <path d="M108,111.761719 C106.671875,111.921875 105.335938,112.003906 104,112 C86.328125,112 72,97.671875 72,80 C72,62.320312 104,16 104,16 C104,16 105.601562,18.320312 108,22 C99.359375,35.121094 80,66.238281 80,80 C80.019531,96.121094 92.007812,109.71875 108,111.761719 Z" id="Path" fill="#E5D63C"></path>
            <path d="M244,95.761719 C242.671875,95.921875 241.335938,96.003906 240,96 C222.328125,96 208,81.671875 208,64 C208,46.320312 240,0 240,0 C240,0 241.601562,2.320312 244,6 C235.359375,19.121094 216,50.238281 216,64 C216.019531,80.121094 228.007812,93.71875 244,95.761719 Z" id="Path" fill="#E5D63C"></path>
            <path d="M380,111.761719 C378.671875,111.921875 377.335938,112.003906 376,112 C358.328125,112 344,97.671875 344,80 C344,62.320312 376,16 376,16 C376,16 377.601562,18.320312 380,22 C371.359375,35.121094 352,66.238281 352,80 C352.019531,96.121094 364.007812,109.71875 380,111.761719 Z" id="Path" fill="#E5D63C"></path>
            <polygon id="Path" fill="#E5890F" points="80 144 128 144 128 160 80 160"></polygon>
            <polygon id="Path" fill="#E5890F" points="216 128 264 128 264 144 216 144"></polygon>
            <polygon id="Path" fill="#E5890F" points="352 144 400 144 400 160 352 160"></polygon>
        </g>
    </g>
</svg>